<?xml version="1.0" encoding="UTF-8" standalone="no"?>
<svg
   xmlns:dc="http://purl.org/dc/elements/1.1/"
   xmlns:cc="http://creativecommons.org/ns#"
   xmlns:rdf="http://www.w3.org/1999/02/22-rdf-syntax-ns#"
   xmlns:svg="http://www.w3.org/2000/svg"
   xmlns="http://www.w3.org/2000/svg"
   xmlns:sodipodi="http://sodipodi.sourceforge.net/DTD/sodipodi-0.dtd"
   xmlns:inkscape="http://www.inkscape.org/namespaces/inkscape"
   data-v-423bf9ae=""
   viewBox="0 0 423.91684 81.779358"
   class="iconLeft"
   version="1.1"
   id="svg24"
   sodipodi:docname="logo-accotech.svg"
   width="423.91684"
   height="81.779358"
   inkscape:version="1.0.1 (0767f8302a, 2020-10-17)">
  <metadata
     id="metadata30">
    <rdf:RDF>
      <cc:Work
         rdf:about="">
        <dc:format>image/svg+xml</dc:format>
        <dc:type
           rdf:resource="http://purl.org/dc/dcmitype/StillImage" />
        <dc:title />
      </cc:Work>
    </rdf:RDF>
  </metadata>
  <defs
     id="defs28" />
  <sodipodi:namedview
     pagecolor="#ffffff"
     bordercolor="#666666"
     borderopacity="1"
     objecttolerance="10"
     gridtolerance="10"
     guidetolerance="10"
     inkscape:pageopacity="0"
     inkscape:pageshadow="2"
     inkscape:window-width="1920"
     inkscape:window-height="948"
     id="namedview26"
     showgrid="false"
     inkscape:zoom="2.8764302"
     inkscape:cx="211.21895"
     inkscape:cy="40.270394"
     inkscape:window-x="0"
     inkscape:window-y="27"
     inkscape:window-maximized="1"
     inkscape:current-layer="svg24"
     inkscape:document-rotation="0" />
  <!---->
  <!---->
  <!---->
  <g
     data-v-423bf9ae=""
     id="a55e7235-22cb-45d4-a0b0-4cfa23206204"
     fill="#ffffff"
     transform="matrix(5.8083253,0,0,5.8083253,98.47636,-7.2709339)"
     style="fill:#000000">
    <path
       d="m 9.95,12.77 v 0 q 0.07,0 0.07,0.08 v 0 0 q 0,0.09 -0.07,0.09 v 0 0 q -0.26,0 -0.85,-0.03 v 0 0 Q 8.51,12.88 8.25,12.88 v 0 0 q -0.35,0 -0.83,0.03 v 0 0 q -0.48,0.03 -0.74,0.03 v 0 0 q -0.06,0 -0.06,-0.09 v 0 0 q 0,-0.08 0.06,-0.08 v 0 0 q 0.4,0 0.59,-0.09 v 0 0 q 0.19,-0.09 0.19,-0.3 v 0 0 q 0,-0.21 -0.24,-0.72 v 0 L 5.71,8.6 H 3.18 L 2.1,11.02 v 0 q -0.18,0.42 -0.18,0.75 v 0 0 q 0,0.49 0.35,0.75 v 0 0 q 0.35,0.25 0.98,0.25 v 0 0 q 0.07,0 0.07,0.08 v 0 0 q 0,0.09 -0.07,0.09 v 0 0 Q 3,12.94 2.52,12.91 v 0 0 Q 1.99,12.88 1.6,12.88 v 0 0 q -0.38,0 -0.89,0.03 v 0 0 q -0.44,0.03 -0.74,0.03 v 0 0 q -0.07,0 -0.07,-0.09 v 0 0 q 0,-0.08 0.07,-0.08 v 0 0 q 0.39,0 0.66,-0.16 v 0 0 Q 0.9,12.46 1.15,12.06 v 0 0 q 0.25,-0.4 0.6,-1.18 v 0 L 4.76,4.1 v 0 Q 4.79,4.06 4.89,4.06 v 0 0 Q 4.98,4.06 5,4.1 v 0 l 3.43,6.92 v 0 q 0.49,1.01 0.82,1.38 v 0 0 q 0.33,0.37 0.7,0.37 z M 4.38,5.89 3.33,8.25 h 2.21 z m 8.84,7.21 v 0 q -0.91,0 -1.55,-0.39 v 0 0 q -0.64,-0.4 -0.95,-1.04 v 0 0 q -0.3,-0.64 -0.3,-1.34 v 0 0 q 0,-0.88 0.47,-1.54 v 0 0 q 0.48,-0.67 1.23,-1.03 v 0 0 q 0.75,-0.35 1.52,-0.35 v 0 0 q 0.65,0 1.19,0.26 v 0 0 q 0.53,0.27 0.53,0.72 v 0 0 q 0,0.23 -0.18,0.41 v 0 0 q -0.19,0.17 -0.51,0.17 v 0 0 q -0.53,0 -0.77,-0.63 v 0 0 Q 13.76,7.99 13.61,7.85 v 0 0 Q 13.45,7.7 13.12,7.7 v 0 0 q -0.66,0 -1.04,0.59 v 0 0 q -0.39,0.6 -0.39,1.59 v 0 0 q 0,1.17 0.54,1.89 v 0 0 q 0.54,0.72 1.69,0.72 v 0 0 q 0.39,0 0.7,-0.1 v 0 0 q 0.3,-0.1 0.67,-0.31 v 0 h 0.01 v 0 q 0.04,0 0.08,0.04 v 0 0 q 0.03,0.05 0.01,0.07 v 0 0 q -0.52,0.47 -1.03,0.69 v 0 0 q -0.5,0.22 -1.14,0.22 z m 5.88,0 v 0 q -0.91,0 -1.55,-0.39 v 0 0 q -0.64,-0.4 -0.95,-1.04 v 0 0 q -0.3,-0.64 -0.3,-1.34 v 0 0 q 0,-0.88 0.47,-1.54 v 0 0 Q 17.25,8.12 18,7.76 v 0 0 q 0.75,-0.35 1.52,-0.35 v 0 0 q 0.65,0 1.19,0.26 v 0 0 q 0.53,0.27 0.53,0.72 v 0 0 q 0,0.23 -0.18,0.41 v 0 0 q -0.19,0.17 -0.51,0.17 v 0 0 q -0.53,0 -0.77,-0.63 v 0 0 Q 19.64,7.99 19.49,7.85 v 0 0 Q 19.33,7.7 19,7.7 v 0 0 q -0.66,0 -1.05,0.59 v 0 0 q -0.38,0.6 -0.38,1.59 v 0 0 q 0,1.17 0.54,1.89 v 0 0 q 0.54,0.72 1.69,0.72 v 0 0 q 0.39,0 0.7,-0.1 v 0 0 q 0.3,-0.1 0.67,-0.31 v 0 h 0.01 v 0 q 0.04,0 0.08,0.04 v 0 0 q 0.03,0.05 0.01,0.07 v 0 0 q -0.52,0.47 -1.03,0.69 v 0 0 q -0.5,0.22 -1.14,0.22 z m 5.9,0.02 v 0 q -0.84,0 -1.48,-0.4 v 0 0 q -0.64,-0.4 -0.99,-1.08 v 0 0 q -0.35,-0.68 -0.35,-1.48 v 0 0 q 0,-0.91 0.45,-1.54 v 0 0 q 0.46,-0.64 1.16,-0.95 v 0 0 Q 24.5,7.35 25.24,7.35 v 0 0 q 0.86,0 1.49,0.41 v 0 0 q 0.64,0.4 0.98,1.07 v 0 0 q 0.33,0.66 0.33,1.42 v 0 0 q 0,0.84 -0.41,1.5 v 0 0 q -0.41,0.65 -1.11,1.01 v 0 0 q -0.7,0.36 -1.52,0.36 z m 0.42,-0.28 v 0 q 0.62,0 0.95,-0.55 v 0 0 Q 26.7,11.75 26.7,10.7 v 0 0 q 0,-0.94 -0.26,-1.64 v 0 0 q -0.26,-0.7 -0.7,-1.07 v 0 0 Q 25.3,7.63 24.78,7.63 v 0 0 q -0.63,0 -0.95,0.52 v 0 0 q -0.32,0.52 -0.32,1.52 v 0 0 q 0,0.91 0.24,1.63 v 0 0 q 0.25,0.73 0.69,1.13 v 0 0 q 0.44,0.41 0.98,0.41 z m 6.05,-8.36 v 0 q -0.85,0 -1.4,0.52 v 0 0 q -0.56,0.53 -0.85,1.59 v 0 0 q 0,0.03 -0.08,0.03 v 0 0 q -0.08,0 -0.08,-0.04 v 0 0 q 0.06,-0.55 0.13,-1.41 v 0 0 q 0.07,-0.86 0.07,-1.29 v 0 0 q 0,-0.07 0.08,-0.07 v 0 0 q 0.07,0 0.07,0.07 v 0 0 q 0,0.31 0.79,0.31 v 0 0 q 1.2,0.04 2.81,0.04 v 0 0 q 0.83,0 1.75,-0.03 v 0 l 0.95,-0.01 v 0 q 0.54,0 0.78,-0.07 v 0 0 q 0.25,-0.07 0.32,-0.28 v 0 0 q 0.01,-0.06 0.08,-0.06 v 0 0 q 0.07,0 0.07,0.06 v 0 0 q -0.04,0.43 -0.08,1.31 v 0 0 q -0.05,0.88 -0.05,1.43 v 0 0 q 0,0.04 -0.07,0.04 v 0 0 q -0.08,0 -0.09,-0.04 v 0 0 Q 36.53,5.5 36.01,4.99 v 0 0 Q 35.49,4.48 34.61,4.48 v 0 0 q -0.39,0 -0.58,0.07 v 0 0 q -0.19,0.07 -0.26,0.24 v 0 0 q -0.06,0.18 -0.06,0.56 v 0 6.45 0 q 0,0.44 0.09,0.63 v 0 0 q 0.08,0.2 0.33,0.27 v 0 0 q 0.25,0.07 0.8,0.07 v 0 0 q 0.04,0 0.04,0.08 v 0 0 q 0,0.09 -0.04,0.09 v 0 0 q -0.49,0 -0.77,-0.02 v 0 l -1.15,-0.01 -1.09,0.01 v 0 q -0.29,0.02 -0.81,0.02 v 0 0 q -0.03,0 -0.03,-0.09 v 0 0 q 0,-0.08 0.03,-0.08 v 0 0 q 0.54,0 0.8,-0.07 v 0 0 q 0.26,-0.07 0.35,-0.27 v 0 0 q 0.09,-0.21 0.09,-0.63 v 0 -6.48 0 q 0,-0.36 -0.07,-0.53 v 0 0 Q 32.21,4.62 32.03,4.55 v 0 0 Q 31.85,4.48 31.47,4.48 Z m 11.3,7.59 0.03,-0.02 v 0 q 0.03,0 0.06,0.06 v 0 0 q 0.04,0.06 0.01,0.08 v 0 0 q -0.51,0.48 -1.02,0.7 v 0 0 q -0.52,0.21 -1.14,0.21 v 0 0 q -0.87,0 -1.49,-0.37 v 0 0 Q 38.6,12.36 38.27,11.74 v 0 0 Q 37.94,11.12 37.94,10.4 v 0 0 q 0,-0.82 0.41,-1.51 v 0 0 Q 38.77,8.2 39.49,7.8 v 0 0 q 0.72,-0.39 1.59,-0.39 v 0 0 q 0.82,0 1.27,0.37 v 0 0 q 0.45,0.37 0.45,1.01 v 0 0 q 0,0.38 -0.16,0.38 v 0 H 41.87 L 39.24,9.2 v 0 Q 39.2,9.49 39.2,9.83 v 0 0 q 0,1.22 0.57,1.94 v 0 0 q 0.56,0.72 1.57,0.72 v 0 0 q 0.37,0 0.74,-0.11 v 0 0 q 0.38,-0.1 0.69,-0.31 z m -2.2,-4.38 v 0 q -0.46,0 -0.8,0.33 v 0 0 Q 39.44,8.36 39.3,8.95 v 0 L 41.48,8.9 v 0 Q 41.45,8.33 41.23,8.01 v 0 0 Q 41.01,7.69 40.57,7.69 Z m 5.98,5.41 v 0 q -0.91,0 -1.55,-0.39 v 0 0 q -0.63,-0.4 -0.94,-1.04 v 0 0 q -0.31,-0.64 -0.31,-1.34 v 0 0 q 0,-0.88 0.48,-1.54 v 0 0 Q 44.7,8.12 45.45,7.76 v 0 0 Q 46.2,7.41 46.97,7.41 v 0 0 q 0.66,0 1.19,0.26 v 0 0 q 0.53,0.27 0.53,0.72 v 0 0 q 0,0.23 -0.18,0.41 v 0 0 q -0.18,0.17 -0.5,0.17 v 0 0 q -0.54,0 -0.77,-0.63 v 0 0 Q 47.1,7.99 46.94,7.85 v 0 0 Q 46.79,7.7 46.45,7.7 v 0 0 q -0.66,0 -1.04,0.59 v 0 0 q -0.39,0.6 -0.39,1.59 v 0 0 q 0,1.17 0.54,1.89 v 0 0 q 0.54,0.72 1.69,0.72 v 0 0 q 0.39,0 0.7,-0.1 v 0 0 q 0.31,-0.1 0.67,-0.31 v 0 h 0.02 v 0 q 0.04,0 0.07,0.04 v 0 0 q 0.04,0.05 0.01,0.07 v 0 0 q -0.52,0.47 -1.02,0.69 v 0 0 q -0.51,0.22 -1.15,0.22 z m 9.42,-0.33 v 0 q 0.06,0 0.06,0.08 v 0 0 q 0,0.09 -0.06,0.09 v 0 0 q -0.35,0 -0.56,-0.02 v 0 l -0.8,-0.01 -0.79,0.01 v 0 q -0.21,0.02 -0.56,0.02 v 0 0 q -0.05,0 -0.05,-0.09 v 0 0 q 0,-0.08 0.05,-0.08 v 0 0 q 0.46,0 0.63,-0.21 v 0 0 q 0.16,-0.2 0.16,-0.76 v 0 -2.08 0 q 0,-1.54 -1.2,-1.54 v 0 0 q -0.38,0 -0.76,0.17 v 0 0 Q 51.7,8.53 51.41,8.82 v 0 2.98 0 q 0,0.58 0.16,0.77 v 0 0 q 0.16,0.2 0.64,0.2 v 0 0 q 0.05,0 0.05,0.08 v 0 0 q 0,0.09 -0.05,0.09 v 0 0 q -0.35,0 -0.56,-0.02 v 0 l -0.8,-0.01 -0.8,0.01 v 0 q -0.21,0.02 -0.56,0.02 v 0 0 q -0.04,0 -0.04,-0.09 v 0 0 q 0,-0.08 0.04,-0.08 v 0 0 q 0.46,0 0.63,-0.21 v 0 0 q 0.17,-0.2 0.17,-0.76 v 0 -7.15 0 q 0,-0.49 -0.1,-0.71 v 0 0 Q 50.09,3.72 49.87,3.72 v 0 0 q -0.21,0 -0.58,0.17 v 0 h -0.01 v 0 q -0.04,0 -0.08,-0.08 v 0 0 Q 49.17,3.74 49.21,3.72 v 0 L 51.16,2.8 51.23,2.79 v 0 q 0.05,0 0.12,0.05 v 0 0 q 0.06,0.06 0.06,0.1 v 0 5.6 0 q 1.01,-1.16 2.14,-1.16 v 0 0 q 0.77,0 1.2,0.46 v 0 0 q 0.42,0.46 0.42,1.26 v 0 2.7 0 q 0,0.58 0.17,0.77 v 0 0 q 0.16,0.2 0.63,0.2 z"
       id="path2"
       style="fill:#000000" />
  </g>
  <!---->
  <g
     data-v-423bf9ae=""
     id="13ece5b0-57ef-4fb7-8da6-6d81d9318e28"
     transform="matrix(1.7037366,0,0,1.7037366,-3.4074732,-3.4074732)"
     stroke="none"
     fill="#ffffff"
     style="fill:#000000">
    <style
       id="style5" />
    <path
       d="M 21.706,50 H 5.01 A 2.442,2.442 0 0 1 2.57,47.56 V 30.866 a 2.442,2.442 0 0 1 2.44,-2.44 h 16.696 a 2.442,2.442 0 0 1 2.44,2.44 V 47.56 A 2.442,2.442 0 0 1 21.706,50 Z M 5.01,30.425 a 0.44,0.44 0 0 0 -0.44,0.44 V 47.56 c 0,0.242 0.198,0.439 0.44,0.439 h 16.696 a 0.44,0.44 0 0 0 0.44,-0.44 V 30.866 a 0.44,0.44 0 0 0 -0.44,-0.44 H 5.01 Z M 47.56,50 H 30.865 a 2.442,2.442 0 0 1 -2.44,-2.44 V 30.866 a 2.442,2.442 0 0 1 2.44,-2.44 H 47.562 A 2.442,2.442 0 0 1 50,30.865 V 47.56 A 2.442,2.442 0 0 1 47.56,50 Z M 30.865,30.425 a 0.44,0.44 0 0 0 -0.44,0.44 V 47.56 c 0,0.242 0.198,0.439 0.44,0.439 h 16.697 a 0.44,0.44 0 0 0 0.439,-0.44 V 30.866 a 0.44,0.44 0 0 0 -0.44,-0.44 H 30.865 Z M 47.56,23.575 H 30.865 a 2.442,2.442 0 0 1 -2.44,-2.44 V 4.44 A 2.442,2.442 0 0 1 30.865,2 H 47.562 A 2.442,2.442 0 0 1 50,4.44 v 16.695 a 2.442,2.442 0 0 1 -2.44,2.44 z M 30.865,4 a 0.44,0.44 0 0 0 -0.44,0.44 v 16.695 c 0,0.242 0.198,0.44 0.44,0.44 h 16.697 a 0.44,0.44 0 0 0 0.439,-0.44 V 4.44 A 0.44,0.44 0 0 0 47.56,4 Z m -9.73,19.575 H 4.439 A 2.442,2.442 0 0 1 2,21.135 V 4.44 A 2.442,2.442 0 0 1 4.44,2 h 16.695 a 2.442,2.442 0 0 1 2.44,2.44 v 16.695 a 2.442,2.442 0 0 1 -2.44,2.44 z M 4.439,4 A 0.44,0.44 0 0 0 4,4.44 v 16.695 c 0,0.242 0.197,0.44 0.44,0.44 h 16.695 a 0.44,0.44 0 0 0 0.44,-0.44 V 4.44 A 0.44,0.44 0 0 0 21.135,4.001 H 4.439 Z"
       id="path7"
       style="fill:#000000" />
    <path
       d="m 43.066,40.213 h -7.708 a 1,1 0 1 1 0,-2 h 7.708 a 1,1 0 1 1 0,2 z m -25.854,0 H 9.504 a 1,1 0 1 1 0,-2 h 7.708 a 1,1 0 1 1 0,2 z M 43.066,13.787 h -7.708 a 1,1 0 1 1 0,-2 h 7.708 a 1,1 0 1 1 0,2 z"
       id="path9"
       style="fill:#000000" />
    <path
       d="m 39.213,17.641 a 1,1 0 0 1 -1,-1 V 8.934 a 1,1 0 1 1 2,0 v 7.707 a 1,1 0 0 1 -1,1 z M 10.062,16.968 a 1,1 0 0 1 -0.76,-1.65 l 5.45,-6.362 a 1.00005,1.00005 0 0 1 1.52,1.3 l -5.45,6.363 a 1,1 0 0 1 -0.76,0.35 z"
       id="path11"
       style="fill:#000000" />
    <path
       d="m 15.512,16.968 a 1,1 0 0 1 -0.76,-0.35 l -5.45,-6.361 a 1.00005,1.00005 0 1 1 1.52,-1.3 l 5.45,6.36 a 1,1 0 0 1 -0.76,1.651 z"
       id="path13"
       style="fill:#000000" />
    <g
       id="g17"
       style="fill:#000000">
      <path
         d="m 13.361,36.64 c -0.27,0 -0.53,-0.11 -0.71,-0.3 a 0.98,0.98 0 0 1 0,-1.41 c 0.37,-0.38 1.04,-0.38 1.41,0 a 0.979,0.979 0 0 1 0,1.41 c -0.18,0.19 -0.44,0.3 -0.7,0.3 z m 0,7.15 c -0.27,0 -0.53,-0.11 -0.71,-0.29 -0.19,-0.19 -0.3,-0.45 -0.3,-0.71 a 1,1 0 0 1 0.08,-0.38 c 0.05,-0.12 0.12,-0.23 0.22,-0.33 0.37,-0.37 1.04,-0.37 1.41,0 0.1,0.1 0.17,0.21 0.22,0.33 a 1,1 0 0 1 0.08,0.38 1.01,1.01 0 0 1 -1,1 z"
         id="path15"
         style="fill:#000000" />
    </g>
    <g
       id="g21"
       style="fill:#000000">
      <path
         d="m 13.142,36.63 a 0.988,0.988 0 0 1 -1,-0.99 c 0,-0.27 0.1,-0.53 0.29,-0.71 0.37,-0.37 1.05,-0.37 1.41,0 0.19,0.18 0.3,0.44 0.3,0.71 0,0.26 -0.11,0.51 -0.3,0.7 a 0.97,0.97 0 0 1 -0.7,0.29 z"
         id="path19"
         style="fill:#000000" />
    </g>
  </g>
  <!---->
</svg>
